<svg width="29" height="37" viewBox="0 0 29 37" fill="none" xmlns="http://www.w3.org/2000/svg">
<path d="M21.3621 34.4576L21.3621 17.9661L25.0698 20.8729L28 20.8729L28 17.9661L25.0698 14.4068L19.8073 4.38136L19.8073 1L4.49834 1L4.49834 4.38136L0.999998 10.9068L0.999998 20.8729L4.49834 24.3432L6.05315 24.3432L7.66777 25.9449L10.9568 25.9449L12.691 27.6653L16.2193 27.6653L16.2193 34.4576L17.7741 36L19.8073 36L21.3621 34.4576Z" fill="#BD7575"/>
<path d="M16.2193 20.8729L16.2193 27.6653M16.2193 27.6653L16.2193 34.4576L17.7741 36L19.8073 36L21.3621 34.4576L21.3621 17.9661L25.0698 20.8729L28 20.8729L28 17.9661L25.0698 14.4068L19.8073 4.38136L19.8073 1L4.49834 1L4.49834 4.38136L0.999998 10.9068L0.999997 20.8729L4.49834 24.3432L6.05315 24.3432M16.2193 27.6653L12.691 27.6653L10.9568 25.9449M10.9568 25.9449L10.9568 20.8729M10.9568 25.9449L7.66777 25.9449L6.05315 24.3432M6.05315 24.3432L6.05315 19.0932" stroke="#FFA0A0" stroke-width="2" stroke-linejoin="bevel"/>
</svg>
