<svg width="30" height="48" viewBox="0 0 30 48" fill="none" xmlns="http://www.w3.org/2000/svg">
<circle cx="20" cy="38" r="9.5" fill="#FFF505" fill-opacity="0.19" stroke="#0182F9"/>
<path d="M22.3621 39.4576L22.3621 23.9661L26.0698 26.8729L29 26.8729L29 23.9661L26.0698 20.4068L20.8073 10.3814L20.8073 7L5.49834 7L5.49834 10.3814L2 16.9068L2 26.8729L5.49834 30.3432L7.05316 30.3432L8.66777 31.9449L11.9568 31.9449L13.691 33.6653L17.2193 33.6653L17.2193 39.4576L18.7741 40L20.8073 40L22.3621 39.4576Z" fill="white"/>
<path d="M17.2193 26.8729L17.2193 33.6653M17.2193 33.6653L17.2193 39.4576L18.7741 40L20.8073 40L22.3621 39.4576L22.3621 23.9661L26.0698 26.8729L29 26.8729L29 23.9661L26.0698 20.4068L20.8073 10.3814L20.8073 7L5.49834 7L5.49834 10.3814L2 16.9068L2 26.8729L5.49834 30.3432L7.05316 30.3432M17.2193 33.6653L13.691 33.6653L11.9568 31.9449M11.9568 31.9449L11.9568 26.8729M11.9568 31.9449L8.66777 31.9449L7.05316 30.3432M7.05316 30.3432L7.05316 25.0932" stroke="#0182F9" stroke-width="2" stroke-linejoin="bevel"/>
<path d="M10 36.1039C11.875 35.8874 16.094 37.0783 16.875 38.7013C17.375 39.7402 18.125 40 19.375 40C21.25 40 22.125 40 23.125 37.4026C24.375 35.4545 28.75 36.1039 30 36.1039" stroke="#0182F9" stroke-width="2" stroke-linejoin="round"/>
<line x1="15.4815" y1="40.7649" x2="12.9956" y2="42.114" stroke="#0182F9"/>
<line x1="17.5304" y1="42.1771" x2="16.4676" y2="44.9826" stroke="#0182F9"/>
<line x1="22.4743" y1="41.8419" x2="23.4743" y2="44.8419" stroke="#0182F9"/>
<line x1="24.1581" y1="40.5257" x2="27.1581" y2="41.5257" stroke="#0182F9"/>
<line x1="19.4979" y1="41.9545" x2="19.7709" y2="44.9421" stroke="#0182F9"/>
<path d="M1 5C2.5 1.5 3.5 1 6 1" stroke="#0182F9"/>
<path d="M18 3.5C21 3 22 3 25 4.5" stroke="#0182F9"/>
<path d="M19.5 1.49999C22 0.999985 24 1.99999 24.5 1.99999" stroke="#0182F9"/>
<path d="M3 5C3.75 3 4.5 3 6 3" stroke="#0182F9"/>
</svg>
